<?xml version="1.0" encoding="UTF-8" standalone="no"?>
<svg
   width="828.57202"
   height="542.56403"
   viewBox="0 0 828.57202 542.56403"
   fill="none"
   version="1.1"
   id="svg440"
   sodipodi:docname="Header.svg"
   inkscape:version="1.1.2 (b8e25be833, 2022-02-05)"
   xmlns:inkscape="http://www.inkscape.org/namespaces/inkscape"
   xmlns:sodipodi="http://sodipodi.sourceforge.net/DTD/sodipodi-0.dtd"
   xmlns="http://www.w3.org/2000/svg"
   xmlns:svg="http://www.w3.org/2000/svg">
  <sodipodi:namedview
     id="namedview442"
     pagecolor="#505050"
     bordercolor="#eeeeee"
     borderopacity="1"
     inkscape:pageshadow="0"
     inkscape:pageopacity="0"
     inkscape:pagecheckerboard="0"
     showgrid="false"
     inkscape:zoom="0.73267548"
     inkscape:cx="329.85353"
     inkscape:cy="317.76397"
     inkscape:window-width="1920"
     inkscape:window-height="1017"
     inkscape:window-x="-8"
     inkscape:window-y="-8"
     inkscape:window-maximized="1"
     inkscape:current-layer="svg440" />
  <path
     d="m 24.653333,286.993 74.575,-129.976"
     stroke="#ffffff"
     stroke-width="0.450925"
     stroke-dasharray="5.41, 10.82"
     id="path2" />
  <path
     d="M 579.08603,428.43 139.45303,138.892"
     stroke="#ffffff"
     stroke-width="0.450925"
     stroke-dasharray="5.41, 10.82"
     id="path4" />
  <path
     d="m 758.31003,255.162 -200.938,155.313"
     stroke="#ffffff"
     stroke-width="0.450925"
     stroke-dasharray="5.41, 10.82"
     id="path6" />
  <path
     d="m 590.48403,104.016 -363.983,382.198"
     stroke="#ffffff"
     stroke-width="0.450925"
     stroke-dasharray="5.41, 10.82"
     id="path8" />
  <path
     d="m 650.70603,119.892 -519.595,13.8"
     stroke="#ffffff"
     stroke-width="0.450925"
     stroke-dasharray="5.41, 10.82"
     id="path10" />
  <path
     d="M 799.15303,232.543 0.4243907,295.115"
     stroke="#ffffff"
     stroke-width="0.426925"
     stroke-dasharray="5.12, 10.25"
     id="path12" />
  <path
     d="m 259.62603,517.065 297.746,-72.755"
     stroke="#ffffff"
     stroke-width="0.450925"
     stroke-dasharray="5.41, 10.82"
     id="path14" />
  <path
     d="m 785.01003,195.324 -182.3,-79.907"
     stroke="#ffffff"
     stroke-width="0.450925"
     stroke-dasharray="5.41, 10.82"
     id="path16" />
  <path
     d="m 99.032133,156.868 -26.683,-15.6 0.3895,-56.340001 26.683,15.590001 z"
     fill="url(#paint0_linear_213_4578)"
     id="path18"
     style="fill:url(#paint0_linear_213_4578)" />
  <path
     d="m 99.421733,100.517 -26.6829,-15.590001 53.246197,-5.61 26.693,15.6 z"
     fill="url(#paint1_linear_213_4578)"
     id="path20"
     style="fill:url(#paint1_linear_213_4578)" />
  <path
     d="m 152.67803,94.917999 -0.39,56.340001 -53.255797,5.61 0.3895,-56.35 z"
     fill="url(#paint2_linear_213_4578)"
     id="path22"
     style="fill:url(#paint2_linear_213_4578)" />
  <path
     d="m 627.93603,133.692 26.683,-15.6 -0.39,-56.340001 -26.683,15.59 z"
     fill="url(#paint3_linear_213_4578)"
     id="path24"
     style="fill:url(#paint3_linear_213_4578)" />
  <path
     d="m 627.54603,77.341999 26.683,-15.59 -53.246,-5.61 -26.693,15.6 z"
     fill="url(#paint4_linear_213_4578)"
     id="path26"
     style="fill:url(#paint4_linear_213_4578)" />
  <path
     d="m 574.29003,71.741999 0.39,56.340001 53.256,5.61 -0.39,-56.350001 z"
     fill="url(#paint5_linear_213_4578)"
     id="path28"
     style="fill:url(#paint5_linear_213_4578)" />
  <path
     d="m 801.88903,267.264 26.683,-15.6 -0.389,-56.34 -26.683,15.59 z"
     fill="url(#paint6_linear_213_4578)"
     id="path30"
     style="fill:url(#paint6_linear_213_4578)" />
  <path
     d="m 801.50003,210.914 26.683,-15.59 -53.246,-5.61 -26.693,15.6 z"
     fill="url(#paint7_linear_213_4578)"
     id="path32"
     style="fill:url(#paint7_linear_213_4578)" />
  <path
     d="m 748.24403,205.314 0.389,56.34 53.256,5.61 -0.389,-56.35 z"
     fill="url(#paint8_linear_213_4578)"
     id="path34"
     style="fill:url(#paint8_linear_213_4578)" />
  <path
     d="m 564.18303,462.353 -26.683,-15.6 0.389,-56.34 26.683,15.59 z"
     fill="url(#paint9_linear_213_4578)"
     id="path36"
     style="fill:url(#paint9_linear_213_4578)" />
  <path
     d="m 564.57203,406.003 -26.683,-15.59 53.246,-5.61 26.693,15.6 z"
     fill="url(#paint10_linear_213_4578)"
     id="path38"
     style="fill:url(#paint10_linear_213_4578)" />
  <path
     d="m 617.82803,400.403 -0.389,56.34 -53.256,5.61 0.39,-56.35 z"
     fill="url(#paint11_linear_213_4578)"
     id="path40"
     style="fill:url(#paint11_linear_213_4578)" />
  <path
     d="m 226.15203,542.564 26.683,-15.6 -0.389,-56.34 -26.683,15.59 z"
     fill="url(#paint12_linear_213_4578)"
     id="path42"
     style="fill:url(#paint12_linear_213_4578)" />
  <path
     d="m 225.76303,486.214 26.683,-15.59 -53.246,-5.61 -26.693,15.6 z"
     fill="url(#paint13_linear_213_4578)"
     id="path44"
     style="fill:url(#paint13_linear_213_4578)" />
  <path
     d="m 172.50703,480.614 0.389,56.34 53.256,5.61 -0.389,-56.35 z"
     fill="url(#paint14_linear_213_4578)"
     id="path46"
     style="fill:url(#paint14_linear_213_4578)" />
  <path
     d="m 53.645733,310.096 26.6829,-15.6 -0.3894,-56.34 -26.683,15.59 z"
     fill="url(#paint15_linear_213_4578)"
     id="path48"
     style="fill:url(#paint15_linear_213_4578)" />
  <path
     d="m 53.256033,253.746 26.683,-15.59 -53.2461,-5.61 L 0,248.146 Z"
     fill="url(#paint16_linear_213_4578)"
     id="path50"
     style="fill:url(#paint16_linear_213_4578)" />
  <path
     d="m 6.17496e-5,248.146 0.3894579504,56.34 53.2560133,5.61 -0.3895,-56.35 z"
     fill="url(#paint17_linear_213_4578)"
     id="path52"
     style="fill:url(#paint17_linear_213_4578)" />
  <path
     d="M 186.42603,475.614 3.9885827,305.268"
     stroke="#ffffff"
     stroke-width="0.450925"
     stroke-dasharray="5.41, 10.82"
     id="path54" />
  <g
     clip-path="url(#clip0_213_4578)"
     id="g86"
     transform="translate(3.27038e-5,-136.707)">
    <path
       d="m 353.948,369.168 -14.338,17.38 5.895,0.4 18.441,-17.698 4.972,-10.839 z"
       fill="url(#paint18_radial_213_4578)"
       id="path56"
       style="fill:url(#paint18_radial_213_4578)" />
    <path
       d="m 453.702,398.82 -8.002,-17.602 -3.54,11.253 6.06,25.052 7.079,3.443 z"
       fill="url(#paint19_radial_213_4578)"
       id="path58"
       style="fill:url(#paint19_radial_213_4578)" />
    <path
       d="m 356.303,448.952 -15.646,-18.786 -5.523,-1.184 9.476,16.843 14.364,17.271 6.226,1.942 z"
       fill="url(#paint20_radial_213_4578)"
       id="path60"
       style="fill:url(#paint20_radial_213_4578)" />
    <path
       d="m 428.732,456.458 -24.047,6.955 -14.971,8.966 8.181,2.341 22.05,-6.404 15.88,-9.324 z"
       fill="url(#paint21_radial_213_4578)"
       id="path62"
       style="fill:url(#paint21_radial_213_4578)" />
    <path
       d="m 345.505,386.948 -5.895,-0.4 -4.917,20.246 0.441,22.187 5.523,1.185 5.399,-21.788 z"
       fill="url(#paint22_radial_213_4578)"
       id="path64"
       style="fill:url(#paint22_radial_213_4578)" />
    <path
       d="m 448.22,417.523 -13.125,17.394 -6.363,21.541 7.093,2.534 13.428,-18.084 6.046,-19.942 z"
       fill="url(#paint23_radial_213_4578)"
       id="path66"
       style="fill:url(#paint23_radial_213_4578)" />
    <path
       d="m 391.367,352.517 -22.449,5.894 -4.972,10.839 18.455,4.394 24.405,-6.515 3.981,-10.288 z"
       fill="url(#paint24_radial_213_4578)"
       id="path68"
       style="fill:url(#paint24_radial_213_4578)" />
    <path
       d="m 430.619,364.154 -19.833,-7.313 -3.98,10.288 16.279,18.593 19.075,6.749 3.54,-11.252 z"
       fill="url(#paint25_radial_213_4578)"
       id="path70"
       style="fill:url(#paint25_radial_213_4578)" />
    <path
       d="m 395.705,446.128 -23.854,-7.12 -15.549,9.944 8.897,16.086 24.515,7.341 14.971,-8.966 z"
       fill="url(#paint26_radial_213_4578)"
       id="path72"
       style="fill:url(#paint26_radial_213_4578)" />
    <path
       d="m 365.448,413.584 -19.392,-5.206 -5.399,21.788 15.646,18.786 15.549,-9.944 z"
       fill="url(#paint27_radial_213_4578)"
       id="path74"
       style="fill:url(#paint27_radial_213_4578)" />
    <path
       d="m 414.698,428.252 -18.992,17.876 8.979,17.285 24.047,-6.955 6.363,-21.541 z"
       fill="url(#paint28_radial_213_4578)"
       id="path76"
       style="fill:url(#paint28_radial_213_4578)" />
    <path
       d="m 382.401,373.644 -18.455,-4.394 -18.441,17.698 0.551,21.43 19.391,5.206 17.932,-17.05 z"
       fill="url(#paint29_radial_213_4578)"
       id="path78"
       style="fill:url(#paint29_radial_213_4578)" />
    <path
       d="m 408.748,404.081 -25.369,-7.548 -17.932,17.051 6.404,25.424 23.854,7.12 18.993,-17.876 z"
       fill="url(#paint30_radial_213_4578)"
       id="path80"
       style="fill:url(#paint30_radial_213_4578)" />
    <path
       d="m 442.16,392.471 -19.075,-6.749 -14.337,18.359 5.95,24.171 20.397,6.665 13.125,-17.394 z"
       fill="url(#paint31_radial_213_4578)"
       id="path82"
       style="fill:url(#paint31_radial_213_4578)" />
    <path
       d="m 406.806,367.129 -24.405,6.515 0.978,22.889 25.369,7.548 14.337,-18.359 z"
       fill="url(#paint32_radial_213_4578)"
       id="path84"
       style="fill:url(#paint32_radial_213_4578)" />
  </g>
  <g
     filter="url(#filter0_f_213_4578)"
     id="g90"
     transform="translate(3.27038e-5,-136.707)">
    <circle
       cx="390.909"
       cy="406.14099"
       r="69.433296"
       fill="#e50000"
       id="circle88" />
  </g>
  <g
     clip-path="url(#clip1_213_4578)"
     id="g102"
     transform="translate(3.27038e-5,-136.707)">
    <path
       fill-rule="evenodd"
       clip-rule="evenodd"
       d="m 27.2847,403.51 c 7.1802,0 13,5.82 13,13 0,7.18 -5.8198,13 -13,13 -7.1802,0 -13,-5.82 -13,-13 0,-7.18 5.8198,-13 13,-13 z"
       fill="#f0b90b"
       fill-opacity="0.2"
       id="path92" />
    <path
       d="m 21.4296,416.51 0.0093,3.437 2.9209,1.719 v 2.013 l -4.6302,-2.716 v -5.458 z m 0,-3.438 v 2.003 l -1.7011,-1.006 v -2.003 l 1.7011,-1.006 1.7093,1.006 z m 4.15,-1.006 1.701,-1.006 1.7094,1.006 -1.7094,1.006 z"
       fill="#f0b90b"
       id="path94" />
    <path
       d="m 22.6587,419.235 v -2.013 l 1.701,1.007 v 2.003 z m 2.9208,3.152 1.701,1.006 1.7094,-1.006 v 2.003 l -1.7094,1.006 -1.701,-1.006 z m 5.8499,-10.321 1.7011,-1.006 1.7093,1.006 v 2.003 l -1.7093,1.006 v -2.003 z m 1.7011,7.881 0.0093,-3.437 1.7011,-1.006 v 5.458 l -4.6302,2.715 v -2.012 z"
       fill="#f0b90b"
       id="path96" />
    <path
       d="m 31.9105,419.235 -1.701,0.997 v -2.003 l 1.701,-1.007 z"
       fill="#f0b90b"
       id="path98" />
    <path
       d="m 31.9108,413.785 0.0093,2.012 -2.9291,1.719 v 3.446 l -1.7011,0.997 -1.701,-0.997 v -3.446 l -2.9292,-1.719 v -2.012 l 1.7084,-1.007 2.9114,1.728 2.9292,-1.728 1.7094,1.007 z m -9.2521,-3.437 4.6219,-2.725 4.6302,2.725 -1.7011,1.007 -2.9291,-1.728 -2.9209,1.728 z"
       fill="#f0b90b"
       id="path100" />
  </g>
  <g
     clip-path="url(#clip2_213_4578)"
     id="g112"
     transform="translate(3.27038e-5,-136.707)">
    <path
       d="m 773.286,387.51 c 7.18,0 13,-5.821 13,-13 0,-7.18 -5.82,-13 -13,-13 -7.18,0 -13,5.82 -13,13 0,7.179 5.82,13 13,13 z"
       fill="#ffd83d"
       fill-opacity="0.2"
       id="path104" />
    <path
       d="m 770.757,367.319 c 1.523,-0.569 3.236,-0.57 4.787,-0.102 2.019,0.626 3.723,2.15 4.614,4.062 0.245,0.545 0.481,1.113 0.504,1.719 -1.135,-0.658 -2.379,-1.084 -3.626,-1.473 -1.994,-0.719 -4.082,-1.218 -5.969,-2.206 -0.44,-0.263 -1,-0.532 -1.119,-1.079 -0.049,-0.473 0.452,-0.737 0.809,-0.921 z"
       fill="#ffd83d"
       id="path106" />
    <path
       d="m 766.162,371.921 c 0.441,-1.196 1.164,-2.306 2.145,-3.129 0.25,2.053 1.123,4.037 2.566,5.529 1.731,1.798 4.195,2.902 6.703,2.86 0.996,0.031 1.97,-0.199 2.941,-0.385 -0.956,3.453 -4.74,5.745 -8.246,5.194 -2.117,-0.27 -4.071,-1.524 -5.25,-3.293 -1.33,-1.955 -1.665,-4.551 -0.859,-6.776 z"
       fill="#ffd83d"
       id="path108" />
    <path
       d="m 777.037,371.525 c 1.246,0.389 2.49,0.815 3.625,1.473 l 0.077,0.04 c 0.105,0.792 0.182,1.599 0.042,2.392 -0.571,-0.242 -1.034,-0.667 -1.517,-1.042 -0.931,-0.775 -1.882,-1.662 -2.227,-2.863 z"
       fill="#ff6f03"
       id="path110" />
  </g>
  <rect
     x="588.11304"
     y="89.416992"
     width="26"
     height="26"
     rx="13"
     fill="#7390fe"
     fill-opacity="0.2"
     id="rect114" />
  <g
     clip-path="url(#clip3_213_4578)"
     id="g128"
     transform="translate(3.27038e-5,-136.707)">
    <path
       d="m 601.111,229.124 -0.134,0.456 v 13.224 l 0.134,0.134 6.139,-3.629 z"
       fill="#ffffff"
       id="path116" />
    <path
       d="m 601.111,229.124 -6.138,10.185 6.138,3.629 v -6.419 z"
       fill="#ffffff"
       id="path118" />
    <path
       d="m 601.111,244.1 -0.075,0.092 v 4.711 l 0.075,0.221 6.142,-8.65 z"
       fill="#ffffff"
       id="path120" />
    <path
       d="M 601.111,249.124 V 244.1 l -6.138,-3.626 z"
       fill="#ffffff"
       id="path122" />
    <path
       d="m 601.111,242.938 6.139,-3.628 -6.139,-2.791 z"
       fill="#ffffff"
       id="path124" />
    <path
       d="m 594.973,239.31 6.138,3.628 v -6.419 z"
       fill="#ffffff"
       id="path126" />
  </g>
  <rect
     x="576.71008"
     y="418.37802"
     width="26"
     height="26"
     rx="13"
     fill="#7390fe"
     fill-opacity="0.2"
     id="rect130" />
  <g
     clip-path="url(#clip4_213_4578)"
     id="g138"
     transform="translate(3.27038e-5,-136.707)">
    <path
       d="m 584.541,571.244 c 0.093,-0.093 0.22,-0.147 0.355,-0.147 h 12.219 c 0.223,0 0.335,0.27 0.177,0.428 l -2.414,2.414 c -0.092,0.092 -0.219,0.146 -0.354,0.146 h -12.219 c -0.224,0 -0.335,-0.27 -0.177,-0.427 z"
       fill="url(#paint33_linear_213_4578)"
       id="path132"
       style="fill:url(#paint33_linear_213_4578)" />
    <path
       d="m 584.541,562.231 c 0.097,-0.092 0.224,-0.146 0.355,-0.146 h 12.219 c 0.223,0 0.335,0.269 0.177,0.427 l -2.414,2.414 c -0.092,0.093 -0.219,0.146 -0.354,0.146 h -12.219 c -0.224,0 -0.335,-0.269 -0.177,-0.427 z"
       fill="url(#paint34_linear_213_4578)"
       id="path134"
       style="fill:url(#paint34_linear_213_4578)" />
    <path
       d="m 594.878,566.709 c -0.092,-0.093 -0.219,-0.147 -0.354,-0.147 h -12.219 c -0.224,0 -0.335,0.27 -0.177,0.428 l 2.413,2.414 c 0.093,0.092 0.22,0.146 0.355,0.146 h 12.219 c 0.223,0 0.335,-0.27 0.177,-0.427 z"
       fill="url(#paint35_linear_213_4578)"
       id="path136"
       style="fill:url(#paint35_linear_213_4578)" />
  </g>
  <g
     clip-path="url(#clip5_213_4578)"
     id="g156"
     transform="translate(3.27038e-5,-136.707)">
    <path
       d="m 126.453,276.499 c 7.18,0 13,-5.82 13,-13 0,-7.18 -5.82,-13 -13,-13 -7.18,0 -13,5.82 -13,13 0,7.18 5.82,13 13,13 z"
       fill="#2e3148"
       fill-opacity="0.4"
       id="path140" />
    <path
       d="m 126.48,255.956 c -0.935,0 -1.692,3.389 -1.692,7.57 0,4.181 0.757,7.57 1.692,7.57 0.934,0 1.692,-3.389 1.692,-7.57 0,-4.181 -0.758,-7.57 -1.692,-7.57 z m 0.117,14.713 c -0.107,0.142 -0.214,0.035 -0.214,0.035 -0.431,-0.498 -0.646,-1.425 -0.646,-1.425 -0.752,-2.422 -0.573,-7.623 -0.573,-7.623 0.354,-4.129 0.997,-5.105 1.216,-5.321 0.022,-0.022 0.052,-0.036 0.083,-0.038 0.031,-0.003 0.063,0.006 0.088,0.024 0.318,0.225 0.585,1.167 0.585,1.167 0.786,2.921 0.715,5.664 0.715,5.664 0.071,2.387 -0.394,5.058 -0.394,5.058 -0.359,2.031 -0.86,2.459 -0.86,2.459 z"
       fill="#6f7390"
       id="path142" />
    <path
       d="m 133.046,259.759 c -0.465,-0.811 -3.782,0.218 -7.41,2.299 -3.628,2.08 -6.187,4.424 -5.723,5.235 0.465,0.81 3.782,-0.219 7.41,-2.299 3.629,-2.081 6.188,-4.425 5.723,-5.235 z m -12.703,7.423 c -0.178,-0.023 -0.138,-0.169 -0.138,-0.169 0.218,-0.621 0.914,-1.269 0.914,-1.269 1.727,-1.859 6.328,-4.291 6.328,-4.291 3.757,-1.748 4.924,-1.675 5.22,-1.593 0.03,0.008 0.057,0.027 0.075,0.053 0.017,0.026 0.025,0.058 0.022,0.089 -0.036,0.388 -0.721,1.088 -0.721,1.088 -2.141,2.137 -4.556,3.44 -4.556,3.44 -2.035,1.25 -4.584,2.175 -4.584,2.175 -1.94,0.699 -2.56,0.477 -2.56,0.477 z"
       fill="#6f7390"
       id="path144" />
    <path
       d="m 133.03,267.32 c 0.468,-0.809 -2.085,-3.164 -5.7,-5.26 -3.615,-2.096 -6.932,-3.138 -7.4,-2.328 -0.468,0.81 2.084,3.163 5.702,5.26 3.617,2.096 6.929,3.138 7.398,2.328 z m -12.789,-7.276 c -0.07,-0.164 0.077,-0.203 0.077,-0.203 0.647,-0.123 1.556,0.156 1.556,0.156 2.473,0.563 6.884,3.326 6.884,3.326 3.395,2.376 3.916,3.423 3.994,3.72 0.008,0.03 0.005,0.062 -0.009,0.091 -0.013,0.028 -0.036,0.051 -0.065,0.064 -0.354,0.162 -1.302,-0.079 -1.302,-0.079 -2.923,-0.784 -5.261,-2.22 -5.261,-2.22 -2.1,-1.133 -4.177,-2.876 -4.177,-2.876 -1.578,-1.329 -1.697,-1.977 -1.697,-1.977 z"
       fill="#6f7390"
       id="path146" />
    <path
       d="m 126.462,264.399 c 0.492,0 0.89,-0.399 0.89,-0.891 0,-0.492 -0.398,-0.891 -0.89,-0.891 -0.492,0 -0.891,0.399 -0.891,0.891 0,0.492 0.399,0.891 0.891,0.891 z"
       fill="#b7b9c8"
       id="path148" />
    <path
       d="m 130.113,260.622 c 0.286,0 0.517,-0.239 0.517,-0.534 0,-0.295 -0.231,-0.534 -0.517,-0.534 -0.285,0 -0.516,0.239 -0.516,0.534 0,0.295 0.231,0.534 0.516,0.534 z"
       fill="#b7b9c8"
       id="path150" />
    <path
       d="m 121.635,262.439 c 0.285,0 0.516,-0.239 0.516,-0.534 0,-0.295 -0.231,-0.534 -0.516,-0.534 -0.286,0 -0.517,0.239 -0.517,0.534 0,0.295 0.231,0.534 0.517,0.534 z"
       fill="#b7b9c8"
       id="path152" />
    <path
       d="m 125.411,268.994 c 0.285,0 0.517,-0.239 0.517,-0.534 0,-0.295 -0.232,-0.535 -0.517,-0.535 -0.285,0 -0.516,0.24 -0.516,0.535 0,0.295 0.231,0.534 0.516,0.534 z"
       fill="#b7b9c8"
       id="path154" />
  </g>
  <g
     clip-path="url(#clip6_213_4578)"
     id="g162"
     transform="translate(3.27038e-5,-136.707)">
    <path
       d="m 207.495,639.75 h -16.054 v 14.601 h 16.054 z"
       fill="#fe1212"
       id="path158" />
    <path
       fill-rule="evenodd"
       clip-rule="evenodd"
       d="m 212.468,648.296 c 0,7.175 -5.816,12.991 -12.991,12.991 -7.175,0 -12.992,-5.816 -12.992,-12.991 0,-7.175 5.817,-12.991 12.992,-12.991 7.175,0 12.991,5.816 12.991,12.991 z m -16.673,5.17 h -2.521 c -0.53,0 -0.791,0 -0.951,-0.102 -0.172,-0.112 -0.278,-0.297 -0.29,-0.501 -0.01,-0.188 0.121,-0.418 0.383,-0.878 l 6.225,-10.973 c 0.265,-0.466 0.399,-0.699 0.568,-0.785 0.182,-0.093 0.399,-0.093 0.581,0 0.169,0.086 0.303,0.319 0.568,0.785 l 1.28,2.234 0.006,0.012 c 0.286,0.499 0.431,0.753 0.495,1.019 0.07,0.29 0.07,0.597 0,0.887 -0.064,0.268 -0.208,0.524 -0.498,1.031 l -3.27,5.781 -0.009,0.014 c -0.288,0.504 -0.434,0.76 -0.636,0.952 -0.22,0.211 -0.485,0.364 -0.775,0.451 -0.265,0.073 -0.562,0.073 -1.156,0.073 z m 6.367,0 h 3.613 c 0.533,0 0.801,0 0.961,-0.105 0.172,-0.112 0.281,-0.3 0.29,-0.504 0.009,-0.183 -0.119,-0.404 -0.369,-0.836 -0.009,-0.015 -0.018,-0.03 -0.027,-0.045 l -1.809,-3.096 -0.021,-0.035 c -0.254,-0.43 -0.382,-0.647 -0.547,-0.731 -0.182,-0.093 -0.396,-0.093 -0.578,0 -0.166,0.086 -0.3,0.313 -0.565,0.769 l -1.803,3.096 -0.006,0.01 c -0.264,0.456 -0.396,0.684 -0.387,0.871 0.013,0.204 0.119,0.392 0.291,0.504 0.156,0.102 0.424,0.102 0.957,0.102 z"
       fill="#1c2a54"
       id="path160" />
  </g>
  <defs
     id="defs438">
    <filter
       id="filter0_f_213_4578"
       x="121.476"
       y="136.707"
       width="538.867"
       height="538.867"
       filterUnits="userSpaceOnUse"
       color-interpolation-filters="sRGB">
      <feFlood
         flood-opacity="0"
         result="BackgroundImageFix"
         id="feFlood164" />
      <feBlend
         mode="normal"
         in="SourceGraphic"
         in2="BackgroundImageFix"
         result="shape"
         id="feBlend166" />
      <feGaussianBlur
         stdDeviation="100"
         result="effect1_foregroundBlur_213_4578"
         id="feGaussianBlur168" />
    </filter>
    <linearGradient
       id="paint0_linear_213_4578"
       x1="73.609001"
       y1="223.597"
       x2="123.049"
       y2="249.39101"
       gradientUnits="userSpaceOnUse"
       gradientTransform="translate(3.27038e-5,-136.707)">
      <stop
         stop-color="#050E24"
         id="stop171" />
      <stop
         offset="0.43"
         stop-color="#06112D"
         id="stop173" />
      <stop
         offset="1"
         stop-color="#09193E"
         id="stop175" />
    </linearGradient>
    <linearGradient
       id="paint1_linear_213_4578"
       x1="76.4589"
       y1="216.603"
       x2="83.015099"
       y2="250.87601"
       gradientUnits="userSpaceOnUse"
       gradientTransform="translate(3.27038e-5,-136.707)">
      <stop
         stop-color="#050E24"
         id="stop178" />
      <stop
         offset="0.43"
         stop-color="#06112D"
         id="stop180" />
      <stop
         offset="1"
         stop-color="#09193E"
         id="stop182" />
    </linearGradient>
    <linearGradient
       id="paint2_linear_213_4578"
       x1="101.529"
       y1="233.315"
       x2="152.582"
       y2="294.60501"
       gradientUnits="userSpaceOnUse"
       gradientTransform="translate(3.27038e-5,-136.707)">
      <stop
         stop-color="#050E24"
         id="stop185" />
      <stop
         offset="0.43"
         stop-color="#06112D"
         id="stop187" />
      <stop
         offset="1"
         stop-color="#09193E"
         id="stop189" />
    </linearGradient>
    <linearGradient
       id="paint3_linear_213_4578"
       x1="653.35901"
       y1="200.422"
       x2="603.91901"
       y2="226.215"
       gradientUnits="userSpaceOnUse"
       gradientTransform="translate(3.27038e-5,-136.707)">
      <stop
         stop-color="#050E24"
         id="stop192" />
      <stop
         offset="0.43"
         stop-color="#06112D"
         id="stop194" />
      <stop
         offset="1"
         stop-color="#09193E"
         id="stop196" />
    </linearGradient>
    <linearGradient
       id="paint4_linear_213_4578"
       x1="650.50897"
       y1="193.427"
       x2="643.953"
       y2="227.7"
       gradientUnits="userSpaceOnUse"
       gradientTransform="translate(3.27038e-5,-136.707)">
      <stop
         stop-color="#050E24"
         id="stop199" />
      <stop
         offset="0.43"
         stop-color="#06112D"
         id="stop201" />
      <stop
         offset="1"
         stop-color="#09193E"
         id="stop203" />
    </linearGradient>
    <linearGradient
       id="paint5_linear_213_4578"
       x1="625.43903"
       y1="210.13901"
       x2="574.38599"
       y2="271.42999"
       gradientUnits="userSpaceOnUse"
       gradientTransform="translate(3.27038e-5,-136.707)">
      <stop
         stop-color="#050E24"
         id="stop206" />
      <stop
         offset="0.43"
         stop-color="#06112D"
         id="stop208" />
      <stop
         offset="1"
         stop-color="#09193E"
         id="stop210" />
    </linearGradient>
    <linearGradient
       id="paint6_linear_213_4578"
       x1="827.31201"
       y1="333.99399"
       x2="777.87299"
       y2="359.78699"
       gradientUnits="userSpaceOnUse"
       gradientTransform="translate(3.27038e-5,-136.707)">
      <stop
         stop-color="#050E24"
         id="stop213" />
      <stop
         offset="0.43"
         stop-color="#06112D"
         id="stop215" />
      <stop
         offset="1"
         stop-color="#09193E"
         id="stop217" />
    </linearGradient>
    <linearGradient
       id="paint7_linear_213_4578"
       x1="824.46301"
       y1="326.99899"
       x2="817.90698"
       y2="361.272"
       gradientUnits="userSpaceOnUse"
       gradientTransform="translate(3.27038e-5,-136.707)">
      <stop
         stop-color="#050E24"
         id="stop220" />
      <stop
         offset="0.43"
         stop-color="#06112D"
         id="stop222" />
      <stop
         offset="1"
         stop-color="#09193E"
         id="stop224" />
    </linearGradient>
    <linearGradient
       id="paint8_linear_213_4578"
       x1="799.39301"
       y1="343.711"
       x2="748.34003"
       y2="405.00201"
       gradientUnits="userSpaceOnUse"
       gradientTransform="translate(3.27038e-5,-136.707)">
      <stop
         stop-color="#050E24"
         id="stop227" />
      <stop
         offset="0.43"
         stop-color="#06112D"
         id="stop229" />
      <stop
         offset="1"
         stop-color="#09193E"
         id="stop231" />
    </linearGradient>
    <linearGradient
       id="paint9_linear_213_4578"
       x1="538.76001"
       y1="529.08301"
       x2="588.20001"
       y2="554.87598"
       gradientUnits="userSpaceOnUse"
       gradientTransform="translate(3.27038e-5,-136.707)">
      <stop
         stop-color="#050E24"
         id="stop234" />
      <stop
         offset="0.43"
         stop-color="#06112D"
         id="stop236" />
      <stop
         offset="1"
         stop-color="#09193E"
         id="stop238" />
    </linearGradient>
    <linearGradient
       id="paint10_linear_213_4578"
       x1="541.60901"
       y1="522.08801"
       x2="548.16498"
       y2="556.36102"
       gradientUnits="userSpaceOnUse"
       gradientTransform="translate(3.27038e-5,-136.707)">
      <stop
         stop-color="#050E24"
         id="stop241" />
      <stop
         offset="0.43"
         stop-color="#06112D"
         id="stop243" />
      <stop
         offset="1"
         stop-color="#09193E"
         id="stop245" />
    </linearGradient>
    <linearGradient
       id="paint11_linear_213_4578"
       x1="566.67999"
       y1="538.79999"
       x2="617.73297"
       y2="600.09003"
       gradientUnits="userSpaceOnUse"
       gradientTransform="translate(3.27038e-5,-136.707)">
      <stop
         stop-color="#050E24"
         id="stop248" />
      <stop
         offset="0.43"
         stop-color="#06112D"
         id="stop250" />
      <stop
         offset="1"
         stop-color="#09193E"
         id="stop252" />
    </linearGradient>
    <linearGradient
       id="paint12_linear_213_4578"
       x1="251.576"
       y1="609.29401"
       x2="202.136"
       y2="635.08698"
       gradientUnits="userSpaceOnUse"
       gradientTransform="translate(3.27038e-5,-136.707)">
      <stop
         stop-color="#040A1B"
         id="stop255" />
      <stop
         offset="0.43"
         stop-color="#06112D"
         id="stop257" />
      <stop
         offset="1"
         stop-color="#09193E"
         id="stop259" />
    </linearGradient>
    <linearGradient
       id="paint13_linear_213_4578"
       x1="248.726"
       y1="602.29901"
       x2="242.17"
       y2="636.57202"
       gradientUnits="userSpaceOnUse"
       gradientTransform="translate(3.27038e-5,-136.707)">
      <stop
         stop-color="#040A1B"
         id="stop262" />
      <stop
         offset="0.43"
         stop-color="#06112D"
         id="stop264" />
      <stop
         offset="1"
         stop-color="#09193E"
         id="stop266" />
    </linearGradient>
    <linearGradient
       id="paint14_linear_213_4578"
       x1="223.65601"
       y1="619.01099"
       x2="172.603"
       y2="680.30103"
       gradientUnits="userSpaceOnUse"
       gradientTransform="translate(3.27038e-5,-136.707)">
      <stop
         stop-color="#040A1B"
         id="stop269" />
      <stop
         offset="0.43"
         stop-color="#06112D"
         id="stop271" />
      <stop
         offset="1"
         stop-color="#09193E"
         id="stop273" />
    </linearGradient>
    <linearGradient
       id="paint15_linear_213_4578"
       x1="79.068703"
       y1="376.82599"
       x2="29.629"
       y2="402.61899"
       gradientUnits="userSpaceOnUse"
       gradientTransform="translate(3.27038e-5,-136.707)">
      <stop
         stop-color="#050E24"
         id="stop276" />
      <stop
         offset="0.43"
         stop-color="#06112D"
         id="stop278" />
      <stop
         offset="1"
         stop-color="#09193E"
         id="stop280" />
    </linearGradient>
    <linearGradient
       id="paint16_linear_213_4578"
       x1="76.218803"
       y1="369.832"
       x2="69.662697"
       y2="404.104"
       gradientUnits="userSpaceOnUse"
       gradientTransform="translate(3.27038e-5,-136.707)">
      <stop
         stop-color="#050E24"
         id="stop283" />
      <stop
         offset="0.43"
         stop-color="#06112D"
         id="stop285" />
      <stop
         offset="1"
         stop-color="#09193E"
         id="stop287" />
    </linearGradient>
    <linearGradient
       id="paint17_linear_213_4578"
       x1="51.148998"
       y1="386.543"
       x2="0.096110404"
       y2="447.83401"
       gradientUnits="userSpaceOnUse"
       gradientTransform="translate(3.27038e-5,-136.707)">
      <stop
         stop-color="#050E24"
         id="stop290" />
      <stop
         offset="0.43"
         stop-color="#06112D"
         id="stop292" />
      <stop
         offset="1"
         stop-color="#09193E"
         id="stop294" />
    </linearGradient>
    <radialGradient
       id="paint18_radial_213_4578"
       cx="0"
       cy="0"
       r="1"
       gradientUnits="userSpaceOnUse"
       gradientTransform="matrix(40.576368,30.48731,-33.948808,45.183367,335.576,362.138)">
      <stop
         stop-color="#E50000"
         id="stop297" />
      <stop
         offset="0.68447"
         stop-color="#06112D"
         id="stop299" />
      <stop
         offset="1"
         stop-color="#E50000"
         id="stop301" />
    </radialGradient>
    <radialGradient
       id="paint19_radial_213_4578"
       cx="0"
       cy="0"
       r="1"
       gradientUnits="userSpaceOnUse"
       gradientTransform="matrix(18.190738,42.464481,-35.638977,15.26686,440.352,386.41)">
      <stop
         stop-color="#E50000"
         id="stop304" />
      <stop
         offset="0.68447"
         stop-color="#06112D"
         id="stop306" />
      <stop
         offset="1"
         stop-color="#E50000"
         id="stop308" />
    </radialGradient>
    <radialGradient
       id="paint20_radial_213_4578"
       cx="0"
       cy="0"
       r="1"
       gradientUnits="userSpaceOnUse"
       gradientTransform="matrix(41.625086,38.521104,-44.525746,48.113574,330.996,433.691)">
      <stop
         stop-color="#E50000"
         id="stop311" />
      <stop
         offset="0.68447"
         stop-color="#06112D"
         id="stop313" />
      <stop
         offset="1"
         stop-color="#E50000"
         id="stop315" />
    </radialGradient>
    <radialGradient
       id="paint21_radial_213_4578"
       cx="0"
       cy="0"
       r="1"
       gradientUnits="userSpaceOnUse"
       gradientTransform="matrix(63.839075,19.510741,-12.645155,41.374901,383.368,458.843)">
      <stop
         stop-color="#E50000"
         id="stop318" />
      <stop
         offset="0.68447"
         stop-color="#06112D"
         id="stop320" />
      <stop
         offset="1"
         stop-color="#E50000"
         id="stop322" />
    </radialGradient>
    <radialGradient
       id="paint22_radial_213_4578"
       cx="0"
       cy="0"
       r="1"
       gradientUnits="userSpaceOnUse"
       gradientTransform="matrix(15.730962,46.599086,-32.743962,11.053736,333.129,392.245)">
      <stop
         stop-color="#E50000"
         id="stop325" />
      <stop
         offset="0.68447"
         stop-color="#06112D"
         id="stop327" />
      <stop
         offset="1"
         stop-color="#E50000"
         id="stop329" />
    </radialGradient>
    <radialGradient
       id="paint23_radial_213_4578"
       cx="0"
       cy="0"
       r="1"
       gradientUnits="userSpaceOnUse"
       gradientTransform="matrix(36.781797,44.303732,-50.487156,41.915394,425.075,422.939)">
      <stop
         stop-color="#E50000"
         id="stop332" />
      <stop
         offset="0.68447"
         stop-color="#06112D"
         id="stop334" />
      <stop
         offset="1"
         stop-color="#E50000"
         id="stop336" />
    </radialGradient>
    <radialGradient
       id="paint24_radial_213_4578"
       cx="0"
       cy="0"
       r="1"
       gradientUnits="userSpaceOnUse"
       gradientTransform="matrix(64.84974,22.571267,-16.247545,46.68099,357.499,355.276)">
      <stop
         stop-color="#E50000"
         id="stop339" />
      <stop
         offset="0.68447"
         stop-color="#06112D"
         id="stop341" />
      <stop
         offset="1"
         stop-color="#E50000"
         id="stop343" />
    </radialGradient>
    <radialGradient
       id="paint25_radial_213_4578"
       cx="0"
       cy="0"
       r="1"
       gradientUnits="userSpaceOnUse"
       gradientTransform="matrix(53.847573,38.065004,-41.602845,58.85228,401.453,361.495)">
      <stop
         stop-color="#E50000"
         id="stop346" />
      <stop
         offset="0.68447"
         stop-color="#06112D"
         id="stop348" />
      <stop
         offset="1"
         stop-color="#E50000"
         id="stop350" />
    </radialGradient>
    <radialGradient
       id="paint26_radial_213_4578"
       cx="0"
       cy="0"
       r="1"
       gradientUnits="userSpaceOnUse"
       gradientTransform="matrix(66.9853,35.651965,-34.285689,64.418249,349.643,443.366)">
      <stop
         stop-color="#E50000"
         id="stop353" />
      <stop
         offset="0.68447"
         stop-color="#06112D"
         id="stop355" />
      <stop
         offset="1"
         stop-color="#E50000"
         id="stop357" />
    </radialGradient>
    <radialGradient
       id="paint27_radial_213_4578"
       cx="0"
       cy="0"
       r="1"
       gradientUnits="userSpaceOnUse"
       gradientTransform="matrix(43.188635,43.347372,-50.25451,50.07048,336.364,413.677)">
      <stop
         stop-color="#E50000"
         id="stop360" />
      <stop
         offset="0.68447"
         stop-color="#06112D"
         id="stop362" />
      <stop
         offset="1"
         stop-color="#E50000"
         id="stop364" />
    </radialGradient>
    <radialGradient
       id="paint28_radial_213_4578"
       cx="0"
       cy="0"
       r="1"
       gradientUnits="userSpaceOnUse"
       gradientTransform="matrix(54.53405,37.564779,-40.690908,59.072357,390.284,432.844)">
      <stop
         stop-color="#E50000"
         id="stop367" />
      <stop
         offset="0.68447"
         stop-color="#06112D"
         id="stop369" />
      <stop
         offset="1"
         stop-color="#E50000"
         id="stop371" />
    </radialGradient>
    <radialGradient
       id="paint29_radial_213_4578"
       cx="0"
       cy="0"
       r="1"
       gradientUnits="userSpaceOnUse"
       gradientTransform="matrix(52.436535,47.364255,-54.628871,60.479125,340.292,375.04)">
      <stop
         stop-color="#E50000"
         id="stop374" />
      <stop
         offset="0.68447"
         stop-color="#06112D"
         id="stop376" />
      <stop
         offset="1"
         stop-color="#E50000"
         id="stop378" />
    </radialGradient>
    <radialGradient
       id="paint30_radial_213_4578"
       cx="0"
       cy="0"
       r="1"
       gradientUnits="userSpaceOnUse"
       gradientTransform="matrix(68.186611,52.984992,-59.524538,76.602381,358.668,403.011)">
      <stop
         stop-color="#E50000"
         id="stop381" />
      <stop
         offset="0.68447"
         stop-color="#06112D"
         id="stop383" />
      <stop
         offset="1"
         stop-color="#E50000"
         id="stop385" />
    </radialGradient>
    <radialGradient
       id="paint31_radial_213_4578"
       cx="0"
       cy="0"
       r="1"
       gradientUnits="userSpaceOnUse"
       gradientTransform="matrix(54.648411,52.558303,-60.887249,63.308578,403.315,392.147)">
      <stop
         stop-color="#E50000"
         id="stop388" />
      <stop
         offset="0.68447"
         stop-color="#06112D"
         id="stop390" />
      <stop
         offset="1"
         stop-color="#E50000"
         id="stop392" />
    </radialGradient>
    <radialGradient
       id="paint32_radial_213_4578"
       cx="0"
       cy="0"
       r="1"
       gradientUnits="userSpaceOnUse"
       gradientTransform="matrix(56.326417,39.477553,-43.022097,61.383759,376.801,371.955)">
      <stop
         stop-color="#E50000"
         id="stop395" />
      <stop
         offset="0.68447"
         stop-color="#06112D"
         id="stop397" />
      <stop
         offset="1"
         stop-color="#E50000"
         id="stop399" />
    </radialGradient>
    <linearGradient
       id="paint33_linear_213_4578"
       x1="595.948"
       y1="560.64301"
       x2="587.49103"
       y2="576.841"
       gradientUnits="userSpaceOnUse">
      <stop
         stop-color="#00FFA3"
         id="stop402" />
      <stop
         offset="1"
         stop-color="#DC1FFF"
         id="stop404" />
    </linearGradient>
    <linearGradient
       id="paint34_linear_213_4578"
       x1="592.25"
       y1="558.71198"
       x2="583.79303"
       y2="574.91101"
       gradientUnits="userSpaceOnUse">
      <stop
         stop-color="#00FFA3"
         id="stop407" />
      <stop
         offset="1"
         stop-color="#DC1FFF"
         id="stop409" />
    </linearGradient>
    <linearGradient
       id="paint35_linear_213_4578"
       x1="594.08698"
       y1="559.672"
       x2="585.63"
       y2="575.87"
       gradientUnits="userSpaceOnUse">
      <stop
         stop-color="#00FFA3"
         id="stop412" />
      <stop
         offset="1"
         stop-color="#DC1FFF"
         id="stop414" />
    </linearGradient>
    <clipPath
       id="clip0_213_4578">
      <rect
         width="120.606"
         height="122.203"
         fill="#ffffff"
         transform="translate(334.693,352.517)"
         id="rect417"
         x="0"
         y="0" />
    </clipPath>
    <clipPath
       id="clip1_213_4578">
      <rect
         width="26"
         height="26"
         fill="#ffffff"
         transform="translate(14.2847,403.51)"
         id="rect420"
         x="0"
         y="0" />
    </clipPath>
    <clipPath
       id="clip2_213_4578">
      <rect
         width="26"
         height="26"
         fill="#ffffff"
         transform="translate(760.286,361.51)"
         id="rect423"
         x="0"
         y="0" />
    </clipPath>
    <clipPath
       id="clip3_213_4578">
      <rect
         width="12.2808"
         height="20"
         fill="#ffffff"
         transform="translate(594.973,229.124)"
         id="rect426"
         x="0"
         y="0" />
    </clipPath>
    <clipPath
       id="clip4_213_4578">
      <rect
         width="15.3109"
         height="12"
         fill="#ffffff"
         transform="translate(582.055,562.085)"
         id="rect429"
         x="0"
         y="0" />
    </clipPath>
    <clipPath
       id="clip5_213_4578">
      <rect
         width="26"
         height="26"
         fill="#ffffff"
         transform="translate(113.453,250.499)"
         id="rect432"
         x="0"
         y="0" />
    </clipPath>
    <clipPath
       id="clip6_213_4578">
      <rect
         width="26"
         height="26.0173"
         fill="#ffffff"
         transform="translate(186.477,635.287)"
         id="rect435"
         x="0"
         y="0" />
    </clipPath>
  </defs>
</svg>
