<svg width="188" height="211" viewBox="0 0 188 211" fill="none" xmlns="http://www.w3.org/2000/svg">
<rect width="187.745" height="210.64" transform="translate(0.127441 0.29776)" fill="#040A1B"/>
<rect x="24.1934" y="0.29776" width="163.679" height="181.534" rx="25.5644" fill="#0F172D"/>
<rect x="0.127441" y="37.6457" width="168.443" height="173.292" rx="25.5644" fill="white" fill-opacity="0.04"/>
<g clip-path="url(#clip0_212_4532)" filter="url(#filter0_f_212_4532)">
<path d="M77.5452 132.64C77.9982 131.652 78.3426 130.598 78.9176 129.687C86.3322 117.847 93.7719 106.025 101.237 94.2206C101.543 93.7354 102.3 93.5357 102.845 93.2034C102.941 93.8446 103.277 94.5665 103.1 95.1118C98.5294 108.464 93.9243 121.804 89.285 135.13C88.2284 138.159 85.2384 139.867 82.3868 139.203C79.3574 138.497 77.3997 135.781 77.5452 132.64ZM86.6849 133.549C86.7283 133.17 86.6953 132.786 86.5879 132.42C86.4804 132.054 86.3008 131.713 86.0595 131.417C85.8182 131.122 85.5201 130.877 85.1829 130.699C84.8456 130.52 84.4761 130.411 84.096 130.378C83.3506 130.312 82.6084 130.534 82.0226 131C81.4369 131.466 81.0524 132.139 80.9487 132.88C80.8607 133.649 81.0778 134.422 81.5535 135.033C82.0291 135.644 82.7253 136.044 83.4926 136.147C83.8731 136.188 84.2581 136.154 84.6252 136.045C84.9922 135.936 85.3341 135.756 85.631 135.514C85.9279 135.273 86.1739 134.975 86.3548 134.637C86.5357 134.3 86.6479 133.93 86.6849 133.549V133.549Z" fill="#FE1212"/>
<path d="M109.63 127.637C108.87 125.435 108.349 123.379 107.462 121.502C106.521 119.485 105.181 117.643 104.077 115.693C103.872 115.33 103.728 114.594 103.926 114.395C106.333 111.941 108.808 109.558 111.391 107.034C116.472 111.789 119.979 117.359 122.222 124.081L109.63 127.637Z" fill="#FE1212"/>
<path d="M108.563 142.406C109.006 139.157 109.533 136.054 109.824 132.931C110.086 129.993 109.968 129.986 112.893 129.48C115.907 128.958 118.926 128.462 121.928 127.887C122.865 127.698 123.305 127.861 123.488 128.884C124.35 133.502 124.454 138.229 123.795 142.88C123.736 143.267 123.232 143.922 122.985 143.901C118.085 143.446 113.195 142.902 108.563 142.406Z" fill="#FE1212"/>
<path d="M71.3188 107.853C70.4433 106.219 69.689 104.723 68.8511 103.279C68.3968 102.496 68.6174 102.111 69.3523 101.707C74.0102 99.0997 79.199 97.5835 84.5278 97.2724C85.1102 97.2393 85.6754 97.2304 86.2489 97.2253C86.3348 97.2345 86.4233 97.2989 86.7105 97.4281C86.6207 99.8608 86.5474 102.382 86.4052 104.899C86.3825 105.111 85.8871 105.495 85.6407 105.471C80.7118 105.019 75.9996 105.839 71.3188 107.853Z" fill="#FE1212"/>
<path d="M68.8346 108.999C68.4167 109.307 68.1273 109.551 67.81 109.757C63.9355 112.175 60.6513 115.429 58.1982 119.282C57.6743 120.094 57.2419 120.267 56.3769 119.778C53.9053 118.376 53.7314 119.081 55.2626 116.186C57.5365 111.903 60.6499 108.121 64.4172 105.068C65.2264 104.402 65.7227 104.307 66.3167 105.3C67.0747 106.544 67.9637 107.728 68.8346 108.999Z" fill="#FE1212"/>
<path d="M103.121 101.107C104.811 102.188 106.342 103.131 107.824 104.152C108.064 104.319 108.278 104.996 108.151 105.159C106.083 107.768 103.959 110.336 101.872 112.879C99.5731 111.564 99.5147 111.434 100.272 109.252C101.176 106.646 102.095 104.036 103.121 101.107Z" fill="#FE1212"/>
<path d="M52.789 136.285C51.6678 136.486 51.0698 136.341 51.0162 135.085C50.8338 130.869 51.3608 126.651 52.5753 122.609C52.6958 122.314 52.8453 122.031 53.0215 121.766C56.1415 122.545 55.9843 122.5 55.1218 125.42C54.2156 128.477 53.6552 131.629 52.9647 134.753C52.8776 135.26 52.8189 135.771 52.789 136.285V136.285Z" fill="#FE1212"/>
<path d="M96.2467 98.4465C94.5713 101.12 93.0337 103.534 91.5369 105.972C90.7375 107.276 89.9535 105.869 88.8925 106.346C89.3625 103.309 89.7538 100.628 90.2275 97.961C90.2676 97.7482 90.9096 97.4553 91.2282 97.5067C92.8227 97.7499 94.4068 98.0903 96.2467 98.4465Z" fill="#FE1212"/>
<path d="M86.6852 133.549C86.6467 133.93 86.5332 134.299 86.3511 134.635C86.1691 134.972 85.9222 135.269 85.6246 135.509C85.3271 135.75 84.9849 135.929 84.6177 136.036C84.2505 136.143 83.8657 136.177 83.4855 136.135C82.7182 136.031 82.022 135.631 81.5464 135.02C81.0708 134.409 80.8536 133.636 80.9416 132.867C81.0453 132.126 81.4298 131.453 82.0156 130.988C82.6013 130.522 83.3435 130.299 84.0889 130.365C84.4708 130.398 84.8423 130.507 85.1813 130.686C85.5203 130.864 85.8198 131.11 86.062 131.407C86.3043 131.704 86.4843 132.046 86.5913 132.414C86.6984 132.782 86.7303 133.168 86.6852 133.549Z" fill="#040A1B"/>
</g>
<g clip-path="url(#clip1_212_4532)">
<path d="M79.377 128.998C79.7222 127.968 79.9524 126.883 80.4272 125.917C86.5387 113.354 92.6771 100.807 98.8423 88.2749C99.0955 87.7598 99.8264 87.4807 100.333 87.0923C100.497 87.7195 100.908 88.4015 100.79 88.9625C97.6674 102.726 94.509 116.48 91.3151 130.224C90.5872 133.349 87.7961 135.366 84.89 135.009C81.8026 134.629 79.5669 132.137 79.377 128.998ZM88.5615 128.929C88.5643 128.548 88.4906 128.169 88.3448 127.817C88.199 127.464 87.984 127.144 87.7126 126.876C87.4412 126.608 87.1188 126.397 86.7645 126.255C86.4102 126.114 86.0311 126.044 85.6496 126.052C84.9015 126.065 84.1872 126.366 83.6543 126.891C83.1215 127.417 82.8109 128.127 82.7866 128.874C82.7811 129.649 83.0793 130.394 83.6173 130.951C84.1552 131.508 84.8901 131.831 85.664 131.853C86.0468 131.853 86.4259 131.777 86.7793 131.63C87.1327 131.483 87.4534 131.268 87.7229 130.996C87.9924 130.724 88.2053 130.401 88.3492 130.046C88.4932 129.692 88.5653 129.312 88.5615 128.929V128.929Z" fill="#FE1212"/>
<path d="M110.746 120.608C109.756 118.499 109.019 116.51 107.938 114.738C106.787 112.833 105.259 111.144 103.952 109.323C103.711 108.983 103.489 108.267 103.665 108.048C105.797 105.352 108.004 102.719 110.303 99.9339C115.862 104.121 119.942 109.285 122.888 115.731L110.746 120.608Z" fill="#FE1212"/>
<path d="M111.258 135.406C111.353 132.129 111.546 128.987 111.502 125.85C111.451 122.901 111.333 122.907 114.187 122.093C117.128 121.252 120.077 120.438 123 119.546C123.912 119.258 124.367 119.373 124.658 120.372C126.007 124.871 126.613 129.561 126.453 134.255C126.436 134.646 126.004 135.351 125.757 135.357C120.837 135.426 115.916 135.406 111.258 135.406Z" fill="#FE1212"/>
<path d="M70.5464 105.015C69.5019 103.485 68.5927 102.078 67.6058 100.731C67.0706 100 67.249 99.5944 67.9367 99.1139C72.2904 96.0255 77.2883 93.9654 82.5537 93.0887C83.1292 92.9937 83.6902 92.9247 84.26 92.8585C84.3463 92.8585 84.4412 92.9132 84.7405 93.011C84.9102 95.4395 85.1059 97.9543 85.2325 100.472C85.2325 100.685 84.7808 101.119 84.5333 101.122C79.5842 101.197 74.9862 102.515 70.5464 105.015Z" fill="#FE1212"/>
<path d="M68.1982 106.42C67.8155 106.771 67.5537 107.044 67.2602 107.283C63.6652 110.099 60.7462 113.685 58.7173 117.776C58.2828 118.64 57.8714 118.858 56.9592 118.464C54.3524 117.333 54.2545 118.053 55.4688 115.011C57.2736 110.51 59.9666 106.419 63.3873 102.981C64.121 102.233 64.6044 102.086 65.3007 103.01C66.187 104.167 67.1969 105.248 68.1982 106.42Z" fill="#FE1212"/>
<path d="M101.449 94.9216C103.245 95.8164 104.867 96.5904 106.45 97.4479C106.706 97.5889 106.991 98.2392 106.882 98.4147C105.103 101.229 103.265 104.008 101.461 106.759C99.035 105.697 98.963 105.574 99.4838 103.323C100.105 100.636 100.741 97.9428 101.449 94.9216Z" fill="#FE1212"/>
<path d="M55.1493 135.259C54.0559 135.579 53.4459 135.498 53.2589 134.255C52.6284 130.082 52.7033 125.832 53.4804 121.684C53.5688 121.378 53.6874 121.081 53.8343 120.798C57.0196 121.241 56.8585 121.212 56.3118 124.207C55.7363 127.344 55.5147 130.538 55.1608 133.717C55.1282 134.231 55.1243 134.745 55.1493 135.259V135.259Z" fill="#FE1212"/>
<path d="M94.3306 93.0081C92.9494 95.8452 91.6776 98.4089 90.449 100.993C89.793 102.374 88.8636 101.059 87.8594 101.646C88.0032 98.5758 88.1068 95.8682 88.2939 93.1664C88.3111 92.9506 88.9182 92.5909 89.2405 92.6082C90.8518 92.6801 92.4632 92.8499 94.3306 93.0081Z" fill="#FE1212"/>
<path d="M88.5609 128.929C88.5632 129.312 88.4896 129.691 88.3445 130.045C88.1993 130.399 87.9854 130.72 87.7152 130.991C87.4449 131.262 87.1237 131.477 86.7701 131.622C86.4164 131.768 86.0373 131.843 85.6548 131.841C84.8808 131.82 84.146 131.496 83.608 130.94C83.0701 130.383 82.7719 129.637 82.7774 128.863C82.8016 128.115 83.1123 127.405 83.6451 126.88C84.178 126.354 84.8923 126.054 85.6404 126.04C86.0236 126.032 86.4046 126.1 86.7607 126.242C87.1168 126.384 87.4407 126.596 87.7132 126.865C87.9857 127.135 88.2012 127.457 88.3468 127.811C88.4924 128.166 88.5653 128.546 88.5609 128.929Z" fill="#040A1B"/>
</g>
<defs>
<filter id="filter0_f_212_4532" x="34.4722" y="72.1454" width="110.376" height="87.8935" filterUnits="userSpaceOnUse" color-interpolation-filters="sRGB">
<feFlood flood-opacity="0" result="BackgroundImageFix"/>
<feBlend mode="normal" in="SourceGraphic" in2="BackgroundImageFix" result="shape"/>
<feGaussianBlur stdDeviation="8" result="effect1_foregroundBlur_212_4532"/>
</filter>
<clipPath id="clip0_212_4532">
<rect width="73.6491" height="48.3254" fill="white" transform="translate(55.6182 88.1454) rotate(6.11306)"/>
</clipPath>
<clipPath id="clip1_212_4532">
<rect width="73.6491" height="48.3254" fill="white" transform="translate(52.8359 87.0922)"/>
</clipPath>
</defs>
</svg>
