<svg width="201" height="201" viewBox="0 0 201 201" fill="none" xmlns="http://www.w3.org/2000/svg">
<path d="M0.0124512 100.356C0.0124512 126.878 10.5481 152.313 29.3018 171.067C48.0554 189.82 73.4908 200.356 100.012 200.356C126.534 200.356 151.969 189.82 170.723 171.067C189.477 152.313 200.012 126.878 200.012 100.356C200.012 73.8343 189.477 48.3989 170.723 29.6453C151.969 10.8916 126.534 0.355957 100.012 0.355957C73.4908 0.355957 48.0554 10.8916 29.3018 29.6453C10.5481 48.3989 0.0124512 73.8343 0.0124512 100.356H0.0124512Z" fill="#091914"/>
<path d="M142.86 57.2242C143.11 56.5647 143.814 56.1966 144.498 56.3673L147.146 57.0275C148.002 57.2411 148.446 58.1875 148.063 58.9826L133.13 89.9835L130.865 88.8341L142.86 57.2242Z" fill="#EECE00"/>
<path d="M139.997 39.4988C140.244 38.906 140.864 38.5586 141.498 38.6579L144.3 39.0964C145.226 39.2414 145.747 40.2417 145.335 41.0838L123.634 85.4442L121.368 84.2948L139.997 39.4988Z" fill="#EECE00"/>
<path d="M29.9326 95.4773C29.9011 94.1445 31.3114 93.3968 32.4804 94.0377C69.1515 114.141 138.554 111.133 167.511 95.0378C168.694 94.3804 170.147 95.1203 170.111 96.4729C169.795 108.341 164.25 151.772 100.023 151.772C35.5689 151.772 30.2133 107.346 29.9326 95.4773Z" fill="#E60000"/>
<path d="M167.511 95.0378L166.209 92.6952L167.511 95.0378ZM170.111 96.4729L172.79 96.5443L172.79 96.5443L170.111 96.4729ZM31.192 96.3878C50.0991 106.753 77.1427 111.045 102.915 110.792C128.664 110.539 153.771 105.741 168.813 97.3804L166.209 92.6952C152.294 100.429 128.222 105.183 102.862 105.432C77.5262 105.681 51.5329 101.426 33.7688 91.6875L31.192 96.3878ZM167.432 96.4015C167.28 102.078 165.867 115.245 156.906 126.943C148.051 138.502 131.466 149.092 100.023 149.092V154.452C132.807 154.452 151.108 143.326 161.161 130.203C171.107 117.219 172.625 102.736 172.79 96.5443L167.432 96.4015ZM100.023 149.092C68.4857 149.092 51.8966 138.268 43.0579 126.468C34.1082 114.521 32.7465 101.099 32.612 95.4139L27.2532 95.5407C27.3995 101.724 28.8559 116.45 38.7677 129.682C48.7906 143.063 67.1065 154.452 100.023 154.452V149.092ZM168.813 97.3804C168.603 97.4968 168.294 97.5208 168.001 97.3632C167.852 97.2837 167.701 97.153 167.588 96.9651C167.47 96.7689 167.427 96.564 167.432 96.4015L172.79 96.5443C172.837 94.7938 171.879 93.3611 170.535 92.64C169.228 91.9386 167.601 91.9213 166.209 92.6952L168.813 97.3804ZM33.7688 91.6875C31.0533 90.1988 27.1659 91.8493 27.2532 95.5407L32.612 95.4139C32.621 95.7949 32.3875 96.1781 32.0527 96.3631C31.7471 96.532 31.4165 96.5109 31.192 96.3878L33.7688 91.6875Z" fill="white"/>
<path d="M170.083 95.9076C170.604 92.3353 166.845 84.3424 147.644 80.9487" stroke="white" stroke-width="5.36031" stroke-linecap="round"/>
<path d="M29.965 95.4579C29.4441 91.8856 33.2024 83.8927 52.4033 80.499" stroke="white" stroke-width="5.36031" stroke-linecap="round"/>
<path d="M43.7571 108.49C43.9859 110.525 44.3361 111.596 45.8165 113.235M49.0398 119.324C56.3107 129.464 61.4763 133.904 73.2152 138.306" stroke="white" stroke-width="5.36031" stroke-linecap="round"/>
<path d="M133.762 156.573V149.454C133.762 148.224 132.548 147.361 131.374 147.729C106.881 155.41 79.4646 151.281 66.4926 147.639C65.3271 147.312 64.1521 148.176 64.1521 149.386V156.629C64.1521 157.434 64.6988 158.143 65.4764 158.351C90.5256 165.053 105.716 164.416 132.37 158.313C133.18 158.128 133.762 157.404 133.762 156.573Z" fill="white" stroke="white" stroke-width="5.36031" stroke-linecap="round"/>
<path d="M63.2964 90.5345C57.2098 92.4397 42.1796 91.8152 37.0569 94.3765C55.6302 103.743 106.053 117.393 159.159 97.065C160.556 88.1236 145.729 84.7012 139.113 87.835C132.497 90.9688 130.035 88.578 122.286 84.0061C111.109 75.9728 101.187 73.9168 92.6625 75.7437C84.1245 77.5735 72.5877 87.6262 63.2964 90.5345Z" fill="#E50000" stroke="white" stroke-width="4.46692" stroke-linecap="round" stroke-linejoin="round"/>
<path d="M77.8401 101.573C74.2929 102.683 65.5333 102.319 62.5479 103.812C79.0764 106.871 116.448 111.467 133.708 105.379C134.523 100.168 125.881 98.1733 122.026 99.9997C118.17 101.826 116.735 100.433 112.219 97.7682C105.705 93.0865 99.9224 91.8883 94.9545 92.953C89.9786 94.0194 83.255 99.878 77.8401 101.573Z" fill="#E50000" stroke="white" stroke-width="4.46692" stroke-linecap="round" stroke-linejoin="round"/>
</svg>
