<svg width="1182" height="882" viewBox="0 0 1182 882" fill="none" xmlns="http://www.w3.org/2000/svg">
<g filter="url(#filter0_f_212_4507)">
<circle cx="638.883" cy="319.748" r="219.431" transform="rotate(30 638.883 319.748)" fill="url(#paint0_radial_212_4507)"/>
</g>
<rect x="175.162" y="353.324" width="901.603" height="483.518" rx="20.5" fill="#050D24" stroke="#182035" stroke-width="7"/>
<rect x="136.742" y="571.186" width="1.87877" height="17.8837" fill="#27AE60"/>
<rect x="132.984" y="589.07" width="9.39385" height="95.8046" fill="#27AE60"/>
<rect x="136.742" y="684.874" width="1.87877" height="17.7201" fill="#27AE60"/>
<rect x="416.853" y="454.851" width="1.87877" height="7.70205" fill="#27AE60"/>
<rect x="413.095" y="462.553" width="9.39385" height="175.648" fill="#27AE60"/>
<rect x="416.853" y="638.201" width="1.87877" height="5.46613" fill="#27AE60"/>
<rect x="790.333" y="446.19" width="1.87877" height="7.70205" fill="#27AE60"/>
<rect x="786.576" y="453.892" width="9.39385" height="175.648" fill="#27AE60"/>
<rect x="790.333" y="629.54" width="1.87877" height="5.46613" fill="#27AE60"/>
<rect x="813.676" y="455.808" width="1.87877" height="7.70205" fill="#27AE60"/>
<rect x="809.919" y="463.51" width="9.39385" height="175.648" fill="#27AE60"/>
<rect x="813.676" y="639.158" width="1.87877" height="5.46613" fill="#27AE60"/>
<rect x="510.223" y="480.214" width="1.87877" height="7.70205" fill="#27AE60"/>
<rect x="506.465" y="487.916" width="9.39385" height="137.133" fill="#27AE60"/>
<rect x="510.223" y="625.049" width="1.87877" height="5.46613" fill="#27AE60"/>
<rect x="533.565" y="449.878" width="1.87877" height="7.70205" fill="#27AE60"/>
<rect x="529.808" y="457.58" width="9.39385" height="137.133" fill="#27AE60"/>
<rect x="533.565" y="594.714" width="1.87877" height="5.46613" fill="#27AE60"/>
<rect x="370.167" y="612.667" width="1.87877" height="17.8837" fill="#27AE60"/>
<rect x="366.41" y="630.551" width="9.39385" height="95.9101" fill="#27AE60"/>
<rect x="370.167" y="726.461" width="1.87877" height="17.7201" fill="#27AE60"/>
<rect x="393.51" y="541.274" width="1.87877" height="17.8837" fill="#27AE60"/>
<rect x="389.752" y="559.158" width="9.39385" height="95.9101" fill="#27AE60"/>
<rect x="393.51" y="655.068" width="1.87877" height="17.7201" fill="#27AE60"/>
<rect x="160.084" y="576.295" width="1.87877" height="17.8837" fill="#27AE60"/>
<rect x="156.327" y="594.178" width="9.39385" height="19.8199" fill="#27AE60"/>
<rect x="160.084" y="613.998" width="1.87877" height="17.7201" fill="#27AE60"/>
<rect x="206.77" y="729.151" width="1.87877" height="7.24109" fill="#27AE60"/>
<rect x="203.012" y="736.392" width="9.39385" height="17.7065" fill="#27AE60"/>
<rect x="206.77" y="754.099" width="1.87877" height="6.99148" fill="#27AE60"/>
<rect x="626.936" y="623.724" width="1.87877" height="7.24109" fill="#27AE60"/>
<rect x="623.179" y="630.965" width="9.39385" height="17.7065" fill="#27AE60"/>
<rect x="626.936" y="648.672" width="1.87877" height="6.99148" fill="#27AE60"/>
<rect x="230.112" y="722.16" width="1.87877" height="7.24109" fill="#27AE60"/>
<rect x="226.355" y="729.401" width="9.39385" height="17.7065" fill="#27AE60"/>
<rect x="230.112" y="747.107" width="1.87877" height="6.99148" fill="#27AE60"/>
<rect x="650.278" y="616.733" width="1.87877" height="7.24109" fill="#27AE60"/>
<rect x="646.521" y="623.974" width="9.39385" height="17.7065" fill="#27AE60"/>
<rect x="650.278" y="641.68" width="1.87877" height="6.99148" fill="#27AE60"/>
<rect x="253.455" y="716.802" width="1.87877" height="7.24109" fill="#27AE60"/>
<rect x="249.697" y="724.043" width="9.39385" height="17.7065" fill="#27AE60"/>
<rect x="253.455" y="741.75" width="1.87877" height="6.99148" fill="#27AE60"/>
<rect x="673.621" y="611.375" width="1.87877" height="7.24109" fill="#27AE60"/>
<rect x="669.863" y="618.616" width="9.39385" height="17.7065" fill="#27AE60"/>
<rect x="673.621" y="636.323" width="1.87877" height="6.99148" fill="#27AE60"/>
<rect x="276.797" y="712.458" width="1.87877" height="7.24109" fill="#27AE60"/>
<rect x="273.04" y="719.699" width="9.39385" height="17.7065" fill="#27AE60"/>
<rect x="276.797" y="737.406" width="1.87877" height="6.99148" fill="#27AE60"/>
<rect x="696.963" y="607.031" width="1.87877" height="7.24109" fill="#27AE60"/>
<rect x="693.206" y="614.272" width="9.39385" height="17.7065" fill="#27AE60"/>
<rect x="696.963" y="631.979" width="1.87877" height="6.99148" fill="#27AE60"/>
<rect x="323.482" y="711.988" width="1.87877" height="7.24109" fill="#27AE60"/>
<rect x="319.725" y="719.229" width="9.39385" height="17.7065" fill="#27AE60"/>
<rect x="323.482" y="736.935" width="1.87877" height="6.99148" fill="#27AE60"/>
<rect x="556.908" y="464.244" width="1.87877" height="7.24109" fill="#27AE60"/>
<rect x="553.15" y="471.486" width="9.39385" height="17.7065" fill="#27AE60"/>
<rect x="556.908" y="489.192" width="1.87877" height="6.99148" fill="#27AE60"/>
<rect x="580.25" y="476.718" width="1.87877" height="7.24109" fill="#27AE60"/>
<rect x="576.493" y="483.959" width="9.39385" height="17.7065" fill="#27AE60"/>
<rect x="580.25" y="501.666" width="1.87877" height="6.99148" fill="#27AE60"/>
<rect x="346.825" y="716.078" width="1.87877" height="7.24109" fill="#27AE60"/>
<rect x="343.067" y="723.319" width="9.39385" height="17.7065" fill="#27AE60"/>
<rect x="346.825" y="741.026" width="1.87877" height="6.99148" fill="#27AE60"/>
<rect x="300.14" y="674.667" width="1.87877" height="7.24109" fill="#27AE60"/>
<rect x="296.382" y="681.908" width="9.39385" height="47.7668" fill="#27AE60"/>
<rect x="300.14" y="729.674" width="1.87877" height="6.99148" fill="#27AE60"/>
<rect x="720.306" y="573.007" width="1.87877" height="7.24109" fill="#27AE60"/>
<rect x="716.549" y="580.248" width="9.39385" height="47.7668" fill="#27AE60"/>
<rect x="720.306" y="628.015" width="1.87877" height="6.99148" fill="#27AE60"/>
<rect x="743.648" y="542.132" width="1.87877" height="7.24109" fill="#27AE60"/>
<rect x="739.891" y="549.373" width="9.39385" height="47.7668" fill="#27AE60"/>
<rect x="743.648" y="597.14" width="1.87877" height="6.99148" fill="#27AE60"/>
<rect x="907.046" y="633.686" width="1.87877" height="7.24109" fill="#27AE60"/>
<rect x="903.289" y="640.927" width="9.39385" height="47.7668" fill="#27AE60"/>
<rect x="907.046" y="688.694" width="1.87877" height="6.99148" fill="#27AE60"/>
<rect x="930.389" y="586.225" width="1.87877" height="7.24109" fill="#27AE60"/>
<rect x="926.632" y="593.466" width="9.39385" height="47.7668" fill="#27AE60"/>
<rect x="930.389" y="641.233" width="1.87877" height="6.99148" fill="#27AE60"/>
<rect x="953.731" y="559.94" width="1.87877" height="7.24109" fill="#27AE60"/>
<rect x="949.974" y="567.181" width="9.39385" height="47.7668" fill="#27AE60"/>
<rect x="953.731" y="614.948" width="1.87877" height="6.99148" fill="#27AE60"/>
<rect x="977.074" y="536.612" width="1.87877" height="7.24109" fill="#27AE60"/>
<rect x="973.317" y="543.854" width="9.39385" height="47.7668" fill="#27AE60"/>
<rect x="977.074" y="591.62" width="1.87877" height="6.99148" fill="#27AE60"/>
<rect x="1023.06" y="536.612" width="1.87877" height="7.24109" fill="#27AE60"/>
<rect x="1019.3" y="543.854" width="9.39385" height="47.7668" fill="#27AE60"/>
<rect x="1023.06" y="591.62" width="1.87877" height="6.99148" fill="#27AE60"/>
<rect x="183.427" y="580.728" width="1.87877" height="17.8837" fill="#EB5757"/>
<rect x="179.669" y="598.612" width="9.39385" height="148.516" fill="#EB5757"/>
<rect x="183.427" y="747.128" width="1.87877" height="17.7201" fill="#EB5757"/>
<rect x="603.593" y="479.126" width="1.87877" height="17.8837" fill="#EB5757"/>
<rect x="599.836" y="497.01" width="9.39385" height="148.516" fill="#EB5757"/>
<rect x="603.593" y="645.526" width="1.87877" height="17.7201" fill="#EB5757"/>
<rect x="440.195" y="461.308" width="1.87877" height="6.26954" fill="#EB5757"/>
<rect x="436.438" y="467.578" width="9.39385" height="57.4512" fill="#EB5757"/>
<rect x="440.195" y="525.029" width="1.87877" height="8.61191" fill="#EB5757"/>
<rect x="463.538" y="502.036" width="1.87877" height="6.26954" fill="#EB5757"/>
<rect x="459.78" y="508.305" width="9.39385" height="57.4512" fill="#EB5757"/>
<rect x="463.538" y="565.756" width="1.87877" height="8.61191" fill="#EB5757"/>
<rect x="486.88" y="558.218" width="1.87877" height="6.26954" fill="#EB5757"/>
<rect x="483.123" y="564.488" width="9.39385" height="57.4512" fill="#EB5757"/>
<rect x="486.88" y="621.939" width="1.87877" height="8.61191" fill="#EB5757"/>
<rect x="766.991" y="553.504" width="1.87877" height="6.26954" fill="#EB5757"/>
<rect x="763.234" y="559.773" width="9.39385" height="57.4512" fill="#EB5757"/>
<rect x="766.991" y="617.224" width="1.87877" height="8.61191" fill="#EB5757"/>
<rect x="837.019" y="458.608" width="1.87877" height="6.26954" fill="#EB5757"/>
<rect x="833.261" y="464.878" width="9.39385" height="138.238" fill="#EB5757"/>
<rect x="837.019" y="603.116" width="1.87877" height="8.61191" fill="#EB5757"/>
<rect x="860.361" y="530.862" width="1.87877" height="6.26954" fill="#EB5757"/>
<rect x="856.604" y="537.132" width="9.39385" height="138.238" fill="#EB5757"/>
<rect x="860.361" y="675.37" width="1.87877" height="8.61191" fill="#EB5757"/>
<rect x="883.704" y="569.201" width="1.87877" height="19.2301" fill="#EB5757"/>
<rect x="879.946" y="588.431" width="9.39385" height="110.354" fill="#EB5757"/>
<rect x="883.704" y="698.785" width="1.87877" height="23.5358" fill="#EB5757"/>
<rect x="1000.42" y="446.19" width="1.87877" height="19.2301" fill="#EB5757"/>
<rect x="996.66" y="465.42" width="9.39385" height="110.354" fill="#EB5757"/>
<rect x="1000.42" y="575.774" width="1.87877" height="23.5358" fill="#EB5757"/>
<g clip-path="url(#clip0_212_4507)">
<rect y="222.158" width="308" height="417" rx="24" fill="#050D24"/>
<rect x="23.5" y="335.158" width="24" height="24" rx="6" fill="#0F172D"/>
<rect x="23.5" y="383.158" width="24" height="24" rx="6" fill="#0F172D"/>
<rect x="23.5" y="431.158" width="24" height="24" rx="6" fill="#0F172D"/>
<rect x="23.5" y="479.158" width="24" height="24" rx="6" fill="#0F172D"/>
<rect x="23.5" y="527.158" width="24" height="24" rx="6" fill="#0F172D"/>
<rect x="23.5" y="575.158" width="24" height="24" rx="6" fill="#0F172D"/>
<rect x="55.5" y="341.244" width="70" height="16.5451" rx="6" fill="#0F172D"/>
<rect x="55.5" y="388.789" width="70" height="16.5451" rx="6" fill="#0F172D"/>
<rect x="55.5" y="436.334" width="70" height="16.5451" rx="6" fill="#0F172D"/>
<rect x="55.5" y="483.879" width="70" height="16.5451" rx="6" fill="#0F172D"/>
<rect x="55.5" y="531.425" width="70" height="16.5451" rx="6" fill="#0F172D"/>
<rect x="55.5" y="578.97" width="70" height="16.5451" rx="6" fill="#0F172D"/>
<rect x="213.5" y="341.244" width="70" height="16.5451" rx="6" fill="#1F2F5C"/>
<rect x="213.5" y="388.789" width="70" height="16.5451" rx="6" fill="#1F2F5C"/>
<rect x="213.5" y="436.334" width="70" height="16.5451" rx="6" fill="#1F2F5C"/>
<rect x="213.5" y="483.879" width="70" height="16.5451" rx="6" fill="#1F2F5C"/>
<rect x="213.5" y="531.425" width="70" height="16.5451" rx="6" fill="#1F2F5C"/>
<rect x="213.5" y="578.97" width="70" height="16.5451" rx="6" fill="#1F2F5C"/>
<rect x="34.4883" y="301.258" width="2.9" height="2.9" rx="1.45" fill="url(#paint1_linear_212_4507)"/>
<rect x="13.6924" y="267.197" width="51" height="16" rx="6" fill="#0E1424"/>
<rect x="72.6636" y="267.197" width="51" height="16" rx="6" fill="#0E1424"/>
<rect x="131.635" y="267.197" width="51" height="16" rx="6" fill="#0E1424"/>
<rect x="190.607" y="267.197" width="51" height="16" rx="6" fill="#E50000"/>
<rect x="18.1118" y="241.226" width="9.90975" height="9.90975" rx="4.95488" fill="url(#paint2_linear_212_4507)"/>
<rect x="30.0215" y="241.226" width="9.90975" height="9.90975" rx="4.95488" fill="url(#paint3_linear_212_4507)"/>
<rect x="41.9312" y="241.226" width="9.90975" height="9.90975" rx="4.95488" fill="url(#paint4_linear_212_4507)"/>
</g>
<rect x="3.5" y="225.658" width="301" height="410" rx="20.5" stroke="#182035" stroke-width="7"/>
<g clip-path="url(#clip1_212_4507)">
<rect x="873.266" y="464.37" width="308" height="417" rx="24" fill="#050D24"/>
<rect x="896.766" y="577.37" width="24" height="24" rx="6" fill="#0F172D"/>
<rect x="896.766" y="625.37" width="24" height="24" rx="6" fill="#0F172D"/>
<rect x="896.766" y="673.37" width="24" height="24" rx="6" fill="#0F172D"/>
<rect x="896.766" y="721.37" width="24" height="24" rx="6" fill="#0F172D"/>
<rect x="896.766" y="769.37" width="24" height="24" rx="6" fill="#0F172D"/>
<rect x="928.766" y="583.456" width="70" height="16.5451" rx="6" fill="#0F172D"/>
<rect x="928.766" y="631.001" width="70" height="16.5451" rx="6" fill="#0F172D"/>
<rect x="928.766" y="678.546" width="70" height="16.5451" rx="6" fill="#0F172D"/>
<rect x="928.766" y="726.091" width="70" height="16.5451" rx="6" fill="#0F172D"/>
<rect x="928.766" y="773.636" width="70" height="16.5451" rx="6" fill="#0F172D"/>
<rect x="1086.77" y="583.456" width="70" height="16.5451" rx="6" fill="#990909"/>
<rect x="1086.77" y="631.001" width="70" height="16.5451" rx="6" fill="#990909"/>
<rect x="1086.77" y="678.546" width="70" height="16.5451" rx="6" fill="#990909"/>
<rect x="1086.77" y="726.091" width="70" height="16.5451" rx="6" fill="#990909"/>
<rect x="1086.77" y="773.636" width="70" height="16.5451" rx="6" fill="#990909"/>
<rect x="907.754" y="543.47" width="2.9" height="2.9" rx="1.45" fill="url(#paint5_linear_212_4507)"/>
<rect x="886.958" y="509.409" width="51" height="16" rx="6" fill="#0E1424"/>
<rect x="945.929" y="509.409" width="51" height="16" rx="6" fill="#0E1424"/>
<rect x="1004.9" y="509.409" width="51" height="16" rx="6" fill="#0E1424"/>
<rect x="1063.87" y="509.409" width="51" height="16" rx="6" fill="#990909"/>
<rect x="891.377" y="483.438" width="9.90975" height="9.90975" rx="4.95488" fill="url(#paint6_linear_212_4507)"/>
<rect x="903.287" y="483.438" width="9.90975" height="9.90975" rx="4.95488" fill="url(#paint7_linear_212_4507)"/>
<rect x="915.197" y="483.438" width="9.90975" height="9.90975" rx="4.95488" fill="url(#paint8_linear_212_4507)"/>
<rect x="939.695" y="820.66" width="175.14" height="12.51" rx="4.17001" fill="#1F2F5C"/>
<rect x="939.695" y="847.07" width="5.56001" height="5.56001" rx="2.78001" fill="#1F2F5C"/>
<rect x="945.255" y="849.155" width="36.8351" height="1.39" rx="0.695001" fill="#1F2F5C"/>
<rect x="982.09" y="847.07" width="5.56001" height="5.56001" rx="2.78001" fill="#1F2F5C"/>
<rect x="987.65" y="849.155" width="36.8351" height="1.39" rx="0.695001" fill="#1F2F5C"/>
<rect x="1024.49" y="847.07" width="5.56001" height="5.56001" rx="2.78001" fill="#1F2F5C"/>
<rect x="1030.05" y="849.155" width="36.8351" height="1.39" rx="0.695001" fill="#1F2F5C"/>
<rect x="1066.88" y="847.07" width="5.56001" height="5.56001" rx="2.78001" fill="#1F2F5C"/>
<rect x="1072.44" y="849.155" width="36.8351" height="1.39" rx="0.695001" fill="#1F2F5C"/>
<rect x="1109.28" y="847.07" width="5.56001" height="5.56001" rx="2.78001" fill="#1F2F5C"/>
</g>
<rect x="876.766" y="467.87" width="301" height="410" rx="20.5" stroke="#182035" stroke-width="7"/>
<defs>
<filter id="filter0_f_212_4507" x="319.415" y="0.28064" width="638.935" height="638.935" filterUnits="userSpaceOnUse" color-interpolation-filters="sRGB">
<feFlood flood-opacity="0" result="BackgroundImageFix"/>
<feBlend mode="normal" in="SourceGraphic" in2="BackgroundImageFix" result="shape"/>
<feGaussianBlur stdDeviation="50" result="effect1_foregroundBlur_212_4507"/>
</filter>
<radialGradient id="paint0_radial_212_4507" cx="0" cy="0" r="1" gradientUnits="userSpaceOnUse" gradientTransform="translate(494.173 247.525) rotate(38.7333) scale(605.68 679.249)">
<stop stop-color="#040A1B"/>
<stop offset="1" stop-color="#E50000"/>
</radialGradient>
<linearGradient id="paint1_linear_212_4507" x1="33.7872" y1="302.491" x2="37.8504" y2="302.491" gradientUnits="userSpaceOnUse">
<stop stop-color="#F1EFEF"/>
</linearGradient>
<linearGradient id="paint2_linear_212_4507" x1="15.7161" y1="245.439" x2="29.6006" y2="245.439" gradientUnits="userSpaceOnUse">
<stop stop-color="#F1EFEF"/>
</linearGradient>
<linearGradient id="paint3_linear_212_4507" x1="27.6257" y1="245.439" x2="41.5103" y2="245.439" gradientUnits="userSpaceOnUse">
<stop stop-color="#F1EFEF"/>
</linearGradient>
<linearGradient id="paint4_linear_212_4507" x1="39.5354" y1="245.439" x2="53.4199" y2="245.439" gradientUnits="userSpaceOnUse">
<stop stop-color="#F1EFEF"/>
</linearGradient>
<linearGradient id="paint5_linear_212_4507" x1="907.053" y1="544.703" x2="911.116" y2="544.703" gradientUnits="userSpaceOnUse">
<stop stop-color="#F1EFEF"/>
</linearGradient>
<linearGradient id="paint6_linear_212_4507" x1="888.982" y1="487.651" x2="902.866" y2="487.651" gradientUnits="userSpaceOnUse">
<stop stop-color="#F1EFEF"/>
</linearGradient>
<linearGradient id="paint7_linear_212_4507" x1="900.891" y1="487.651" x2="914.776" y2="487.651" gradientUnits="userSpaceOnUse">
<stop stop-color="#F1EFEF"/>
</linearGradient>
<linearGradient id="paint8_linear_212_4507" x1="912.801" y1="487.651" x2="926.686" y2="487.651" gradientUnits="userSpaceOnUse">
<stop stop-color="#F1EFEF"/>
</linearGradient>
<clipPath id="clip0_212_4507">
<rect y="222.158" width="308" height="417" rx="24" fill="white"/>
</clipPath>
<clipPath id="clip1_212_4507">
<rect x="873.266" y="464.37" width="308" height="417" rx="24" fill="white"/>
</clipPath>
</defs>
</svg>
