<svg width="24" height="25" viewBox="0 0 24 25" fill="none" xmlns="http://www.w3.org/2000/svg">
<g clip-path="url(#clip0_213_4572)">
<path d="M20.317 5.30181C18.787 4.61181 17.147 4.10181 15.432 3.81181C15.4167 3.80888 15.4009 3.81077 15.3868 3.81722C15.3726 3.82367 15.3608 3.83436 15.353 3.84781C15.143 4.21681 14.909 4.69781 14.745 5.07781C12.9261 4.80605 11.0769 4.80605 9.25799 5.07781C9.07533 4.65667 8.86934 4.24604 8.64099 3.84781C8.63325 3.83419 8.62154 3.82326 8.60743 3.81647C8.59331 3.80968 8.57746 3.80736 8.56199 3.80981C6.84799 4.09981 5.20799 4.60981 3.67699 5.30081C3.66382 5.30634 3.65265 5.31576 3.64499 5.32781C0.532992 9.90281 -0.320008 14.3648 0.0989923 18.7708C0.100158 18.7816 0.103508 18.792 0.108837 18.8015C0.114167 18.811 0.121364 18.8192 0.129992 18.8258C1.94638 20.1482 3.97233 21.1556 6.12299 21.8058C6.13798 21.8104 6.15402 21.8104 6.16901 21.8058C6.18399 21.8011 6.19723 21.7921 6.20699 21.7798C6.66979 21.1609 7.07989 20.5042 7.43299 19.8168C7.43789 19.8074 7.44072 19.7971 7.44127 19.7865C7.44183 19.7759 7.44011 19.7653 7.43622 19.7555C7.43233 19.7456 7.42637 19.7367 7.41874 19.7293C7.41111 19.722 7.40199 19.7163 7.39199 19.7128C6.746 19.4695 6.12008 19.176 5.51999 18.8348C5.50921 18.8287 5.50012 18.8199 5.49355 18.8094C5.48698 18.7989 5.48312 18.7869 5.48233 18.7745C5.48153 18.7621 5.48383 18.7497 5.48901 18.7384C5.49418 18.7271 5.50208 18.7173 5.51199 18.7098C5.63799 18.6168 5.76399 18.5198 5.88399 18.4228C5.89479 18.4141 5.9078 18.4085 5.92158 18.4068C5.93535 18.405 5.94934 18.4071 5.96199 18.4128C9.88899 20.1768 14.142 20.1768 18.023 18.4128C18.0357 18.4068 18.0498 18.4044 18.0638 18.406C18.0778 18.4076 18.091 18.4131 18.102 18.4218C18.222 18.5198 18.347 18.6168 18.474 18.7098C18.484 18.7171 18.492 18.7268 18.4974 18.738C18.5027 18.7492 18.5052 18.7615 18.5046 18.7739C18.504 18.7863 18.5004 18.7984 18.494 18.809C18.4876 18.8196 18.4787 18.8285 18.468 18.8348C17.87 19.1788 17.248 19.4698 16.595 19.7118C16.585 19.7155 16.5758 19.7212 16.5682 19.7286C16.5606 19.7361 16.5546 19.7451 16.5507 19.755C16.5468 19.765 16.5451 19.7756 16.5457 19.7863C16.5463 19.7969 16.5491 19.8073 16.554 19.8168C16.914 20.5038 17.326 21.1578 17.779 21.7788C17.7884 21.7916 17.8015 21.8011 17.8166 21.8061C17.8316 21.8111 17.8478 21.8114 17.863 21.8068C20.0173 21.1585 22.0466 20.1506 23.865 18.8258C23.8739 18.8196 23.8813 18.8116 23.8868 18.8023C23.8923 18.793 23.8958 18.7826 23.897 18.7718C24.397 13.6778 23.059 9.25181 20.348 5.32981C20.3413 5.31707 20.3303 5.30713 20.317 5.30181ZM8.01999 16.0878C6.83799 16.0878 5.86299 15.0188 5.86299 13.7078C5.86299 12.3958 6.81899 11.3278 8.01999 11.3278C9.22999 11.3278 10.196 12.4048 10.177 13.7078C10.177 15.0198 9.22099 16.0878 8.01999 16.0878V16.0878ZM15.995 16.0878C14.812 16.0878 13.838 15.0188 13.838 13.7078C13.838 12.3958 14.793 11.3278 15.995 11.3278C17.205 11.3278 18.171 12.4048 18.152 13.7078C18.152 15.0198 17.206 16.0878 15.995 16.0878V16.0878Z" fill="#D4D4D4"/>
</g>
<defs>
<clipPath id="clip0_213_4572">
<rect width="24" height="24" fill="white" transform="translate(0 0.809814)"/>
</clipPath>
</defs>
</svg>
