<svg width="24" height="25" viewBox="0 0 24 25" fill="none" xmlns="http://www.w3.org/2000/svg">
<g clip-path="url(#clip0_213_4574)">
<path fill-rule="evenodd" clip-rule="evenodd" d="M12 0.809814C5.37 0.809814 0 6.17981 0 12.8098C0 18.1198 3.435 22.6048 8.205 24.1948C8.805 24.2998 9.03 23.9398 9.03 23.6248C9.03 23.3398 9.015 22.3948 9.015 21.3898C6 21.9448 5.22 20.6548 4.98 19.9798C4.845 19.6348 4.26 18.5698 3.75 18.2848C3.33 18.0598 2.73 17.5048 3.735 17.4898C4.68 17.4748 5.355 18.3598 5.58 18.7198C6.66 20.5348 8.385 20.0248 9.075 19.7098C9.18 18.9298 9.495 18.4048 9.84 18.1048C7.17 17.8048 4.38 16.7698 4.38 12.1798C4.38 10.8748 4.845 9.79481 5.61 8.95481C5.49 8.65481 5.07 7.42481 5.73 5.77481C5.73 5.77481 6.735 5.45981 9.03 7.00481C9.99 6.73481 11.01 6.59981 12.03 6.59981C13.05 6.59981 14.07 6.73481 15.03 7.00481C17.325 5.44481 18.33 5.77481 18.33 5.77481C18.99 7.42481 18.57 8.65481 18.45 8.95481C19.215 9.79481 19.68 10.8598 19.68 12.1798C19.68 16.7848 16.875 17.8048 14.205 18.1048C14.64 18.4798 15.015 19.1998 15.015 20.3248C15.015 21.9298 15 23.2198 15 23.6248C15 23.9398 15.225 24.3148 15.825 24.1948C18.2072 23.3905 20.2772 21.8595 21.7437 19.8172C23.2101 17.7749 23.9993 15.3241 24 12.8098C24 6.17981 18.63 0.809814 12 0.809814Z" fill="#D4D4D4"/>
</g>
<defs>
<clipPath id="clip0_213_4574">
<rect width="24" height="24" fill="white" transform="translate(0 0.809814)"/>
</clipPath>
</defs>
</svg>
