<?xml version="1.0" encoding="UTF-8" standalone="no"?>
<!-- Generator: Adobe Illustrator 19.0.0, SVG Export Plug-In . SVG Version: 6.00 Build 0)  -->

<svg
   version="1.1"
   id="Layer_1"
   x="0px"
   y="0px"
   viewBox="0 0 455 455"
   style="enable-background:new 0 0 455 455;"
   xml:space="preserve"
   sodipodi:docname="telegram-svgrepo-com.svg"
   inkscape:version="1.1.2 (b8e25be833, 2022-02-05)"
   xmlns:inkscape="http://www.inkscape.org/namespaces/inkscape"
   xmlns:sodipodi="http://sodipodi.sourceforge.net/DTD/sodipodi-0.dtd"
   xmlns="http://www.w3.org/2000/svg"
   xmlns:svg="http://www.w3.org/2000/svg"><defs
   id="defs41" /><sodipodi:namedview
   id="namedview39"
   pagecolor="#505050"
   bordercolor="#eeeeee"
   borderopacity="1"
   inkscape:pageshadow="0"
   inkscape:pageopacity="0"
   inkscape:pagecheckerboard="0"
   showgrid="false"
   inkscape:zoom="1.2827466"
   inkscape:cx="90.196704"
   inkscape:cy="208.75918"
   inkscape:window-width="1920"
   inkscape:window-height="1017"
   inkscape:window-x="-8"
   inkscape:window-y="-8"
   inkscape:window-maximized="1"
   inkscape:current-layer="layer1" />

<g
   id="g8">
</g>
<g
   id="g10">
</g>
<g
   id="g12">
</g>
<g
   id="g14">
</g>
<g
   id="g16">
</g>
<g
   id="g18">
</g>
<g
   id="g20">
</g>
<g
   id="g22">
</g>
<g
   id="g24">
</g>
<g
   id="g26">
</g>
<g
   id="g28">
</g>
<g
   id="g30">
</g>
<g
   id="g32">
</g>
<g
   id="g34">
</g>
<g
   id="g36">
</g>
<g
   inkscape:groupmode="layer"
   id="layer1"
   inkscape:label="Layer 1"><path
     id="path76"
     style="fill:#d4d4d4;fill-opacity:1;stroke:none;stroke-width:0;stroke-linecap:butt;stroke-linejoin:miter;stroke-miterlimit:4;stroke-dasharray:none;stroke-opacity:1"
     d="M 437.78156,47.657676 10.006415,212.05796 c 0,0 -18.2032331,10.23915 0,23.89157 -0.5688526,0 103.422965,38.41665 103.422965,38.41665 l 40.49683,128.25677 c 0,0 6.25516,15.92658 21.04529,6.82496 -0.56886,-0.56886 54.04052,-44.93963 54.04052,-44.93963 0,0 10.23914,-11.37602 23.89156,-1.70556 0,-0.56884 101.25608,72.81268 101.25608,72.81268 0,0 13.65328,11.37726 22.18604,-5.11943 L 452.23113,62.087686 c 0,0 2.0471,-14.998859 -14.44957,-14.43001 z m -85.49519,80.596654 c 4.07286,-0.12815 3.43904,4.87338 3.43904,4.87338 L 188.95414,288.0217 c -10.45821,8.04476 -12.46723,22.92695 -12.46723,22.92695 0,0 -6.43556,43.03762 -5.63109,42.23315 -4.82686,8.44701 -10.45973,2.0131 -10.45973,2.0131 0,0 -23.32881,-80.44735 -22.52434,-79.24061 -4.42462,-16.49179 12.86985,-24.13482 12.86985,-24.13482 L 350.23693,128.65416 c 0.78958,-0.25726 1.4676,-0.38152 2.04944,-0.39983 z" /></g></svg>
