<svg width="25" height="25" viewBox="0 0 25 25" fill="none" xmlns="http://www.w3.org/2000/svg">
<g clip-path="url(#clip0_213_4570)">
<path d="M24.1494 5.74681C23.3144 6.11681 22.4174 6.36682 21.4744 6.47982C22.4474 5.89761 23.1753 4.98128 23.5224 3.90182C22.6082 4.4448 21.6077 4.82701 20.5644 5.03182C19.8627 4.28268 18.9334 3.78614 17.9207 3.61929C16.9079 3.45244 15.8685 3.62461 14.9636 4.10907C14.0587 4.59353 13.3391 5.36318 12.9165 6.29852C12.4939 7.23386 12.3919 8.28257 12.6264 9.28182C10.774 9.18881 8.96199 8.70736 7.30778 7.86872C5.65358 7.03008 4.1942 5.85298 3.02436 4.41382C2.62436 5.10382 2.39436 5.90382 2.39436 6.75582C2.39391 7.52281 2.58279 8.27806 2.94424 8.95455C3.30568 9.63104 3.82852 10.2079 4.46636 10.6338C3.72664 10.6103 3.00323 10.4104 2.35636 10.0508V10.1108C2.35628 11.1866 2.72839 12.2292 3.40954 13.0618C4.09069 13.8944 5.03893 14.4657 6.09336 14.6788C5.40714 14.8645 4.6877 14.8919 3.98936 14.7588C4.28686 15.6844 4.86635 16.4938 5.64673 17.0737C6.4271 17.6536 7.36928 17.975 8.34136 17.9928C6.69119 19.2882 4.65325 19.9909 2.55536 19.9878C2.18374 19.9879 1.81244 19.9662 1.44336 19.9228C3.57284 21.292 6.0517 22.0186 8.58336 22.0158C17.1534 22.0158 21.8384 14.9178 21.8384 8.76182C21.8384 8.56182 21.8334 8.35981 21.8244 8.15981C22.7357 7.50079 23.5223 6.68471 24.1474 5.74982L24.1494 5.74681V5.74681Z" fill="#D4D4D4"/>
</g>
<defs>
<clipPath id="clip0_213_4570">
<rect width="24" height="24" fill="white" transform="translate(0.506348 0.809814)"/>
</clipPath>
</defs>
</svg>
